<svg width="26" height="19" viewBox="0 0 26 19" fill="none" xmlns="http://www.w3.org/2000/svg">
<path fill-rule="evenodd" clip-rule="evenodd" d="M1.89583 0C1.39303 0 0.910814 0.199675 0.555277 0.5551C0.199739 0.910524 0 1.39258 0 1.89523L0 17.0571C0 18.1032 0.849333 18.9523 1.89583 18.9523H24.1042C24.607 18.9523 25.0892 18.7526 25.4447 18.3972C25.8003 18.0418 26 17.5597 26 17.0571V1.89523C26 1.39258 25.8003 0.910524 25.4447 0.5551C25.0892 0.199675 24.607 0 24.1042 0H1.89583ZM1.625 1.89523C1.625 1.82342 1.65353 1.75456 1.70433 1.70378C1.75512 1.65301 1.824 1.62448 1.89583 1.62448H24.1042C24.176 1.62448 24.2449 1.65301 24.2957 1.70378C24.3465 1.75456 24.375 1.82342 24.375 1.89523V2.81793L13.1517 10.3989C13.1069 10.4291 13.0541 10.4453 13 10.4453C12.9459 10.4453 12.8931 10.4291 12.8483 10.3989L1.625 2.81793V1.89523ZM1.625 4.77814V17.0571C1.625 17.2065 1.74633 17.3278 1.89583 17.3278H24.1042C24.176 17.3278 24.2449 17.2993 24.2957 17.2485C24.3465 17.1977 24.375 17.1289 24.375 17.0571V4.77814L14.0617 11.745C13.4203 12.1782 12.5797 12.1782 11.9383 11.745L1.625 4.77814Z" fill="#17110A"/>
</svg>
