<svg width="26" height="28" viewBox="0 0 26 28" fill="none" xmlns="http://www.w3.org/2000/svg">
<path d="M23.5988 24.1146C24.7078 22.9174 24.7078 21.3212 23.5988 20.1547L20.5637 16.9623C20.0384 16.379 19.3963 16.0721 18.6959 16.0721C18.0247 16.0721 17.3827 16.379 16.8282 16.9623L15.0771 18.8041C14.9312 18.712 14.7853 18.6506 14.6394 18.5585C14.4351 18.4664 14.26 18.3436 14.0849 18.2515C12.4506 17.1771 10.9622 15.7344 9.56139 13.9233C8.86098 13.0024 8.39404 12.235 8.07302 11.4369C8.51077 11.0071 8.94853 10.5467 9.3571 10.1169C9.50302 9.96342 9.67813 9.77924 9.82404 9.62576C10.3785 9.04252 10.6996 8.3365 10.6996 7.63048C10.6996 6.92446 10.4077 6.24913 9.82404 5.6352L8.33567 4.03897C8.16057 3.85479 7.98546 3.67061 7.83955 3.48643C7.51852 3.11807 7.16832 2.74971 6.81811 2.41205C6.2928 1.85951 5.65076 1.55254 4.97953 1.55254C4.3083 1.55254 3.66626 1.85951 3.11177 2.41205L1.21482 4.40733C0.514408 5.14405 0.105834 6.03425 0.0182826 7.07794C-0.0984527 8.76625 0.368488 10.3318 0.718694 11.3755C1.59421 13.8926 2.93666 16.2562 4.92116 18.7734C7.34342 21.8123 10.2326 24.176 13.5304 25.8643C14.7853 26.5089 16.478 27.2456 18.3749 27.3684C18.4916 27.3684 18.6084 27.3684 18.7251 27.3684C19.98 27.3684 21.0598 26.8773 21.877 25.9257L21.9061 25.895C22.198 25.5266 22.519 25.189 22.8692 24.8513C23.1319 24.6364 23.3653 24.3908 23.5988 24.1146ZM21.877 23.7769C21.5268 24.1453 21.1474 24.5136 20.8263 24.9434C20.2719 25.588 19.6006 25.8643 18.7543 25.8643C18.6667 25.8643 18.5792 25.8643 18.4916 25.8643C16.8573 25.7108 15.3398 25.0662 14.1724 24.4829C11.0498 22.8867 8.33567 20.6459 6.05933 17.7911C4.19157 15.4274 2.93666 13.2173 2.09033 10.8536C1.56502 9.41088 1.38992 8.27511 1.47747 7.23142C1.53584 6.5561 1.7985 6.00356 2.23625 5.51241L4.10402 3.54783C4.36667 3.27156 4.65851 3.11807 4.95035 3.11807C5.30055 3.11807 5.59239 3.33295 5.79668 3.54783C6.14688 3.88549 6.43872 4.22315 6.78893 4.59151C6.96403 4.77569 7.13913 4.95987 7.31424 5.14405L8.80261 6.70958C9.09445 7.01655 9.24037 7.32351 9.24037 7.63048C9.24037 7.93744 9.09445 8.24441 8.80261 8.55138C8.65669 8.70486 8.48159 8.88904 8.33567 9.04252C7.86873 9.53367 7.43097 9.99412 6.96403 10.4546L6.93485 10.4853C6.46791 10.9764 6.55546 11.4676 6.64301 11.7745C6.64301 11.8052 6.64301 11.8052 6.67219 11.8359C7.05158 12.8182 7.60608 13.7698 8.45241 14.8749C9.96996 16.8395 11.5751 18.3743 13.3261 19.5408C13.5596 19.6943 13.793 19.817 13.9973 19.9398C14.2016 20.0319 14.3767 20.1547 14.5518 20.2468C14.581 20.2468 14.581 20.2775 14.6102 20.2775C14.7853 20.3696 14.9604 20.431 15.1355 20.431C15.5733 20.431 15.8651 20.124 15.9526 20.0319L17.8496 18.0366C18.0247 17.8525 18.3457 17.6069 18.6959 17.6069C19.0461 17.6069 19.3088 17.8525 19.5131 18.0366L22.5482 21.2291C23.2486 21.9658 22.9276 22.6411 22.519 23.0709C22.3439 23.3165 22.1104 23.5313 21.877 23.7769ZM13.472 5.5738C13.5304 5.14405 13.9098 4.86778 14.3184 4.95987C16.0694 5.26684 17.6453 6.12634 18.9002 7.47699C20.1551 8.82765 20.9723 10.4853 21.2933 12.2964C21.3517 12.7261 21.089 13.1252 20.7096 13.1866C20.6804 13.1866 20.6221 13.1866 20.5929 13.1866C20.2427 13.1866 19.9216 12.9103 19.8633 12.5419C19.6298 11.0378 18.9294 9.62576 17.8788 8.55138C16.8282 7.4463 15.5149 6.74028 14.0849 6.46401C13.6471 6.40261 13.3845 6.00356 13.472 5.5738ZM24.5619 12.3271C24.1241 9.62576 22.8984 7.17003 21.0598 5.20544C19.192 3.24086 16.8573 1.9823 14.2892 1.52185C13.8806 1.46045 13.6179 1.0614 13.7055 0.631644C13.793 0.201891 14.1432 -0.0743786 14.5518 0.0177113C17.3827 0.508858 20.0092 1.9209 22.0812 4.10036C24.1533 6.27983 25.5249 9.04252 25.9919 12.0508C26.0502 12.4805 25.7876 12.8796 25.4082 12.941C25.379 12.941 25.3207 12.941 25.2915 12.941C24.9413 12.9717 24.6202 12.6954 24.5619 12.3271Z" fill="#17110A"/>
</svg>
