<svg width="56" height="52" viewBox="0 0 56 52" fill="none" xmlns="http://www.w3.org/2000/svg">
<path d="M7.32099 10.3664H33.8067C34.0351 10.3664 34.2542 10.2823 34.4157 10.1327C34.5772 9.98315 34.668 9.78028 34.668 9.56873C34.668 9.35719 34.5772 9.15432 34.4157 9.00473C34.2542 8.85515 34.0351 8.77112 33.8067 8.77112H7.32099C7.09256 8.77112 6.8735 8.85515 6.71198 9.00473C6.55046 9.15432 6.45972 9.35719 6.45972 9.56873C6.45972 9.78028 6.55046 9.98315 6.71198 10.1327C6.8735 10.2823 7.09256 10.3664 7.32099 10.3664Z" fill="#FF9A88"/>
<path d="M34.8808 17.5424C34.8808 17.3308 34.7901 17.128 34.6286 16.9784C34.4671 16.8288 34.248 16.7448 34.0196 16.7448H7.53388C7.30545 16.7448 7.08639 16.8288 6.92487 16.9784C6.76335 17.1279 6.67261 17.3308 6.67261 17.5424C6.67261 17.7539 6.76335 17.9568 6.92487 18.1064C7.08639 18.2559 7.30545 18.34 7.53388 18.34H34.0196C34.248 18.34 34.4671 18.2559 34.6286 18.1064C34.7901 17.9568 34.8808 17.7539 34.8808 17.5424Z" fill="#FF9A88"/>
<path d="M6.67261 41.4633C6.67262 41.6748 6.76336 41.8777 6.92488 42.0273C7.0864 42.1768 7.30546 42.2609 7.53388 42.2609H27.4645C27.046 41.752 26.6626 41.2192 26.3166 40.6656H7.53388C7.30546 40.6657 7.0864 40.7497 6.92488 40.8993C6.76336 41.0489 6.67262 41.2517 6.67261 41.4633Z" fill="#FF9A88"/>
<path d="M24.1259 32.6923H7.53388C7.30545 32.6923 7.08639 32.7763 6.92487 32.9259C6.76335 33.0755 6.67261 33.2783 6.67261 33.4899C6.67261 33.7014 6.76335 33.9043 6.92487 34.0539C7.08639 34.2035 7.30545 34.2875 7.53388 34.2875H24.1707C24.1372 33.8923 24.115 33.4941 24.115 33.0911C24.115 32.9573 24.1222 32.8252 24.1259 32.6923Z" fill="#FF9A88"/>
<path d="M26.8496 24.7188H7.53388C7.30545 24.7188 7.08639 24.8028 6.92487 24.9524C6.76335 25.1019 6.67261 25.3048 6.67261 25.5164C6.67261 25.7279 6.76335 25.9308 6.92487 26.0804C7.08639 26.2299 7.30545 26.314 7.53388 26.314H25.8504C26.1482 25.764 26.4819 25.2312 26.8496 24.7188Z" fill="#FF9A88"/>
<path d="M3.44483 51.0313H37.8956C38.7378 51.0301 39.5504 50.7437 40.1801 50.2259C40.8099 49.7082 41.2132 48.995 41.314 48.2209C41.0375 48.2338 40.7593 48.2404 40.4794 48.2405C40.1726 48.2405 39.8682 48.2311 39.5656 48.2156C39.4756 48.5631 39.262 48.8725 38.9591 49.0939C38.6561 49.3154 38.2816 49.4361 37.8956 49.4366H3.44483C2.98799 49.4366 2.54985 49.2686 2.22681 48.9695C1.90377 48.6704 1.72229 48.2648 1.72229 47.8419V3.18946C1.72229 2.76651 1.90377 2.36088 2.22681 2.06181C2.54985 1.76274 2.98799 1.59473 3.44483 1.59473H37.8956C38.3524 1.59473 38.7906 1.76274 39.1136 2.06181C39.4366 2.36088 39.6181 2.76651 39.6181 3.18946V17.9619C39.9034 17.9481 40.1905 17.9411 40.4794 17.9407C40.7683 17.9407 41.0554 17.9478 41.3407 17.9619V3.18946C41.3396 2.34385 40.9763 1.53315 40.3305 0.935219C39.6846 0.337286 38.809 0.000949704 37.8956 0L3.44483 0C2.53146 0.000949704 1.65578 0.337286 1.00993 0.935219C0.364073 1.53315 0.000781677 2.34385 -0.000244141 3.18946L-0.000244141 47.8419C0.000781677 48.6875 0.364073 49.4982 1.00993 50.0961C1.65578 50.694 2.53146 51.0304 3.44483 51.0313Z" fill="#FF9A88"/>
<path d="M40.4795 19.5356C37.5836 19.5356 34.7528 20.3306 32.345 21.8201C29.9373 23.3095 28.0606 25.4266 26.9524 27.9034C25.8442 30.3803 25.5543 33.1058 26.1192 35.7352C26.6842 38.3646 28.0787 40.7799 30.1263 42.6756C32.174 44.5713 34.7829 45.8623 37.623 46.3853C40.4632 46.9084 43.4072 46.6399 46.0826 45.614C48.7579 44.588 51.0446 42.8506 52.6535 40.6215C54.2623 38.3924 55.121 35.7717 55.121 33.0907C55.1167 29.4969 53.5727 26.0515 50.8278 23.5103C48.0829 20.9691 44.3613 19.5397 40.4795 19.5356ZM40.4795 45.0511C37.9243 45.0511 35.4266 44.3496 33.302 43.0354C31.1775 41.7212 29.5216 39.8532 28.5438 37.6678C27.566 35.4823 27.3102 33.0775 27.8087 30.7574C28.3072 28.4373 29.5376 26.3062 31.3443 24.6335C33.1511 22.9608 35.453 21.8217 37.9591 21.3602C40.4651 20.8987 43.0627 21.1355 45.4234 22.0408C47.784 22.946 49.8017 24.479 51.2213 26.4459C52.6408 28.4128 53.3985 30.7252 53.3985 33.0907C53.3946 36.2617 52.0323 39.3018 49.6103 41.544C47.1884 43.7862 43.9046 45.0475 40.4795 45.0511Z" fill="#FF9A88"/>
<path d="M44.9267 25.0005L44.6331 24.8673C43.9212 24.5476 43.1024 24.4986 42.352 24.7311C41.6016 24.9635 40.9794 25.4587 40.6186 26.1107L35.4056 35.6218C35.4011 35.63 35.3991 35.6389 35.395 35.6472C35.382 35.6737 35.3706 35.7009 35.3609 35.7285C35.3527 35.751 35.3447 35.7732 35.3387 35.7962C35.3322 35.8228 35.3271 35.8498 35.3236 35.8769C35.3198 35.9032 35.3165 35.9291 35.3155 35.9556C35.3151 35.9664 35.3122 35.9766 35.3123 35.9876L35.3434 40.6708C35.3444 40.8177 35.3892 40.9614 35.4728 41.0862C35.5564 41.211 35.6757 41.312 35.8173 41.378C35.9595 41.4423 36.1177 41.4699 36.2754 41.4579C36.433 41.4459 36.5842 41.3947 36.7131 41.3097L40.8432 38.5138C40.8782 38.489 40.911 38.4617 40.9414 38.4322C40.9495 38.4248 40.9588 38.4191 40.9666 38.4113C41.0155 38.3615 41.0573 38.3062 41.091 38.2467C41.0943 38.241 41.0995 38.237 41.1027 38.2312L46.2884 28.7695C46.4693 28.4398 46.5776 28.0801 46.6069 27.7112C46.6363 27.3424 46.5862 26.9719 46.4594 26.6212C46.3327 26.2705 46.132 25.9466 45.8688 25.6683C45.6057 25.3901 45.2854 25.1631 44.9267 25.0005L44.9267 25.0005ZM37.0554 39.1021L37.0433 37.2651L38.6756 38.0055L37.0554 39.1021ZM39.9513 36.8083L37.3367 35.6224L40.884 29.1505L43.4985 30.3362L39.9513 36.8083ZM44.7526 28.0479L44.278 28.914L41.6635 27.7282L42.1545 26.8321C42.3094 26.5529 42.5761 26.3408 42.8977 26.2412C43.2192 26.1417 43.5701 26.1625 43.8753 26.2993L44.1689 26.4325C44.477 26.5756 44.7114 26.8259 44.8208 27.1286C44.9302 27.4313 44.9056 27.7618 44.7526 28.0479L44.7526 28.0479Z" fill="#FF9A88"/>
</svg>
