<svg width="55" height="51" viewBox="0 0 55 51" fill="none" xmlns="http://www.w3.org/2000/svg">
<path d="M50.3281 44.9992C48.8316 43.8119 47.6023 42.3773 46.6937 40.7943C55.8332 30.9499 54.5505 16.1092 43.9144 7.64992C33.2783 -0.809316 17.2439 0.377946 8.10432 10.2223C-1.03526 20.0667 0.247489 34.9075 10.8836 43.3667C19.168 49.9461 31.0869 50.886 40.4403 45.6917C45.8385 46.1864 52.5195 46.5327 50.3281 44.9992Z" stroke="#FF9A88" stroke-width="2.5" stroke-linecap="round" stroke-linejoin="round"/>
<path d="M30.285 25.4163C30.285 26.9013 29.0023 28.1387 27.3989 28.1387C25.7954 28.1387 24.4592 26.9013 24.4592 25.4163C24.4592 23.9314 25.742 22.694 27.3454 22.694C29.0023 22.7435 30.285 23.9314 30.285 25.4163Z" fill="#FF9A88"/>
<path d="M40.6539 25.4159C40.6539 26.9005 39.3712 28.1377 37.7677 28.1377C36.1643 28.1377 34.8281 26.95 34.8281 25.4653C34.8281 23.9807 36.1109 22.7435 37.7143 22.7435C39.3712 22.694 40.6539 23.9312 40.6539 25.4159Z" fill="#FF9A88"/>
<path d="M19.9699 25.4164C19.9699 26.9013 18.6871 28.1387 17.0837 28.1387C15.4802 28.1387 14.144 26.9508 14.144 25.4659C14.144 23.9809 15.4268 22.7435 17.0302 22.7435C18.6871 22.7435 19.9699 23.9315 19.9699 25.4164Z" fill="#FF9A88"/>
</svg>
