<svg width="56" height="56" viewBox="0 0 56 56" fill="none" xmlns="http://www.w3.org/2000/svg">
<path d="M19.8678 37.7085L22.791 37.7108C25.8859 37.6945 28.7081 36.7523 30.9573 34.9891C33.2066 33.2259 34.6757 30.8073 35.2008 27.9946C35.7587 25.014 35.0266 21.9867 33.1409 19.4702C31.2426 16.942 28.4305 15.2605 25.222 14.7404C24.8989 14.6867 24.0835 14.6378 23.3691 14.6051L17.1894 14.6121L11.391 14.6074L10.9164 14.6401C8.12695 14.8803 5.48141 16.0838 3.46696 18.0265C1.47776 19.9437 0.261014 22.4322 0.043918 25.028C-0.16308 27.4745 0.364513 29.8185 1.56611 31.8032C2.7046 33.6877 4.45147 35.255 6.63757 36.3628L8.36424 41.622C8.45764 41.9066 8.69241 42.1305 8.99281 42.2307C9.10388 42.2681 9.21748 42.2844 9.33107 42.2844C9.5305 42.2844 9.7274 42.2307 9.89906 42.1235L16.9294 37.7248C17.6489 37.7132 18.858 37.7085 19.8678 37.7085ZM16.0408 36.0246L9.89653 39.8682L8.44502 35.4485C8.36676 35.206 8.18249 35.0031 7.93762 34.8888C5.93075 33.9442 4.33535 32.5635 3.33065 30.896C2.32342 29.2331 1.88418 27.253 2.05584 25.1726C2.2376 23.0059 3.25996 20.9255 4.92857 19.3186C6.60475 17.7 8.79843 16.6971 11.1032 16.5012L11.4692 16.4732L17.192 16.4802L23.3514 16.4732C23.8891 16.4989 24.5808 16.5316 24.8686 16.5805C27.5494 17.0167 29.8971 18.4207 31.4824 20.536C33.0677 22.6467 33.6811 25.1842 33.2141 27.6798C32.7724 30.0563 31.543 32.0924 29.6573 33.5687C27.7741 35.0474 25.3962 35.8357 22.791 35.8497L19.8728 35.8473C18.6914 35.8473 17.245 35.852 16.5861 35.866C16.3867 35.8683 16.1999 35.9243 16.0408 36.0246Z" fill="#FF9A88"/>
<path d="M9.66893 23.0709H25.7088C26.2667 23.0709 26.7185 22.6533 26.7185 22.1377C26.7185 21.6221 26.2641 21.2045 25.7088 21.2045H9.66893C9.11104 21.2045 8.65918 21.6221 8.65918 22.1377C8.65918 22.6533 9.11357 23.0709 9.66893 23.0709Z" fill="#FF9A88"/>
<path d="M9.66893 27.0784H25.7088C26.2667 27.0784 26.7185 26.6608 26.7185 26.1453C26.7185 25.6297 26.2641 25.2122 25.7088 25.2122H9.66893C9.11104 25.2122 8.65918 25.6297 8.65918 26.1453C8.65918 26.6608 9.11357 27.0784 9.66893 27.0784Z" fill="#FF9A88"/>
<path d="M26.721 30.1539C26.721 29.6383 26.2667 29.2207 25.7113 29.2207H9.66893C9.11104 29.2207 8.65918 29.6383 8.65918 30.1539C8.65918 30.6695 9.11357 31.0871 9.66893 31.0871H25.7088C26.2692 31.0871 26.721 30.6695 26.721 30.1539Z" fill="#FF9A88"/>
<path d="M21.7666 9.83073C21.7666 10.3462 22.221 10.7636 22.7763 10.7636H47.8509V45.0922H22.7763C22.2185 45.0922 21.7666 45.5096 21.7666 46.0251C21.7666 46.5405 22.221 46.958 22.7763 46.958H48.4164C49.2166 46.958 49.8704 46.3563 49.8704 45.6146V10.2435C49.8704 9.50188 49.2166 8.90016 48.4164 8.90016H22.7789C22.221 8.89782 21.7666 9.31763 21.7666 9.83073Z" fill="#FF9A88"/>
<path d="M35.6046 55.8345H47.2924C51.6646 55.7528 55.1785 52.4014 55.1205 48.3736V7.46792C55.1735 3.42843 51.6596 0.0792971 47.2697 0H23.9117C19.5395 0.0769648 16.0255 3.42843 16.076 7.45626V10.936C16.076 11.4514 16.5304 11.8689 17.0858 11.8689C17.6437 11.8689 18.0955 11.4514 18.0955 10.936V7.4446C18.0526 4.42664 20.678 1.92412 23.9268 1.86581H47.2444C50.511 1.92412 53.1363 4.42664 53.0934 7.45626V48.3852C53.1388 51.4032 50.516 53.908 47.2672 53.9687H23.9394C20.6729 53.908 18.0526 51.4032 18.0955 48.3736V42.0951C18.0955 41.5797 17.6411 41.1622 17.0858 41.1622C16.5279 41.1622 16.076 41.5797 16.076 42.0951V48.3619C16.023 52.4014 19.5319 55.7552 23.9218 55.8368H35.6046V55.8345Z" fill="#FF9A88"/>
<path d="M35.5998 52.738C36.8782 52.738 37.9146 51.7802 37.9146 50.5987C37.9146 49.4172 36.8782 48.4594 35.5998 48.4594C34.3213 48.4594 33.2849 49.4172 33.2849 50.5987C33.2849 51.7802 34.3213 52.738 35.5998 52.738Z" fill="#FF9A88"/>
<path d="M38.7804 6.35479C39.3383 6.35479 39.7902 5.93719 39.7902 5.4216C39.7902 4.90601 39.3358 4.4884 38.7804 4.4884H32.4165C31.8586 4.4884 31.4067 4.90601 31.4067 5.4216C31.4067 5.93719 31.8611 6.35479 32.4165 6.35479H38.7804Z" fill="#FF9A88"/>
</svg>
